<mxfile host="app.diagrams.net" modified="2024-02-29T17:54:24.629Z" agent="Mozilla/5.0 (Macintosh; Intel Mac OS X 10_15_7) AppleWebKit/537.36 (KHTML, like Gecko) Chrome/121.0.0.0 Safari/537.36" etag="gBUJaVqnOLV61Zl5Bw5I" version="23.1.8" type="device">
  <diagram name="Page-1" id="5jwlC1-nUzxYW0pVRgor">
    <mxGraphModel dx="1450" dy="574" grid="0" gridSize="10" guides="1" tooltips="1" connect="1" arrows="1" fold="1" page="0" pageScale="1" pageWidth="150" pageHeight="100" math="0" shadow="0">
      <root>
        <mxCell id="0" />
        <mxCell id="1" parent="0" />
        <mxCell id="2VZB6rV9Qvf97vIHL61_-299" value="Some" style="rhombus;whiteSpace=wrap;html=1;strokeColor=none;fillColor=none;fontColor=#000000;fontSize=13;strokeWidth=1;" parent="1" vertex="1">
          <mxGeometry x="1" y="120" width="80" height="20" as="geometry" />
        </mxCell>
        <mxCell id="2VZB6rV9Qvf97vIHL61_-300" value="analysts" style="rhombus;whiteSpace=wrap;html=1;strokeColor=none;fillColor=none;fontColor=#000000;fontSize=13;strokeWidth=1;" parent="1" vertex="1">
          <mxGeometry x="80" y="120" width="80" height="20" as="geometry" />
        </mxCell>
        <mxCell id="2VZB6rV9Qvf97vIHL61_-301" value="saw" style="rhombus;whiteSpace=wrap;html=1;strokeColor=none;fillColor=none;fontColor=#000000;fontSize=13;" parent="1" vertex="1">
          <mxGeometry x="160" y="120" width="80" height="20" as="geometry" />
        </mxCell>
        <mxCell id="2VZB6rV9Qvf97vIHL61_-302" value="the" style="rhombus;whiteSpace=wrap;html=1;strokeColor=none;fillColor=none;fontColor=#000000;fontSize=13;" parent="1" vertex="1">
          <mxGeometry x="240" y="120" width="80" height="20" as="geometry" />
        </mxCell>
        <mxCell id="2VZB6rV9Qvf97vIHL61_-303" value="payment" style="rhombus;whiteSpace=wrap;html=1;strokeColor=none;fillColor=none;fontColor=#000000;fontSize=13;" parent="1" vertex="1">
          <mxGeometry x="320" y="120" width="80" height="20" as="geometry" />
        </mxCell>
        <mxCell id="2VZB6rV9Qvf97vIHL61_-304" value="as" style="rhombus;whiteSpace=wrap;html=1;strokeColor=none;fillColor=none;fontColor=#000000;fontSize=13;" parent="1" vertex="1">
          <mxGeometry x="400" y="120" width="80" height="20" as="geometry" />
        </mxCell>
        <mxCell id="2VZB6rV9Qvf97vIHL61_-305" value="an" style="rhombus;whiteSpace=wrap;html=1;strokeColor=none;fillColor=none;fontColor=#000000;fontSize=13;" parent="1" vertex="1">
          <mxGeometry x="480" y="120" width="80" height="20" as="geometry" />
        </mxCell>
        <mxCell id="2VZB6rV9Qvf97vIHL61_-306" value="effort" style="rhombus;whiteSpace=wrap;html=1;strokeColor=none;fillColor=none;fontColor=#000000;fontSize=13;" parent="1" vertex="1">
          <mxGeometry x="560" y="120" width="80" height="20" as="geometry" />
        </mxCell>
        <mxCell id="2VZB6rV9Qvf97vIHL61_-307" value="also" style="rhombus;whiteSpace=wrap;html=1;strokeColor=none;fillColor=none;fontColor=#000000;fontSize=13;" parent="1" vertex="1">
          <mxGeometry x="640" y="119" width="80" height="21" as="geometry" />
        </mxCell>
        <mxCell id="2VZB6rV9Qvf97vIHL61_-308" value="to" style="rhombus;whiteSpace=wrap;html=1;strokeColor=none;fillColor=none;fontColor=#000000;fontSize=13;" parent="1" vertex="1">
          <mxGeometry x="720" y="120" width="80" height="20" as="geometry" />
        </mxCell>
        <mxCell id="2VZB6rV9Qvf97vIHL61_-309" value="dispel" style="rhombus;whiteSpace=wrap;html=1;strokeColor=none;fillColor=none;fontColor=#000000;fontSize=13;" parent="1" vertex="1">
          <mxGeometry x="800" y="120" width="80" height="20" as="geometry" />
        </mxCell>
        <mxCell id="2VZB6rV9Qvf97vIHL61_-310" value="takeover" style="rhombus;whiteSpace=wrap;html=1;strokeColor=none;fillColor=none;fontColor=#000000;fontSize=13;" parent="1" vertex="1">
          <mxGeometry x="880" y="120" width="80" height="20" as="geometry" />
        </mxCell>
        <mxCell id="2VZB6rV9Qvf97vIHL61_-311" value="speculation" style="rhombus;whiteSpace=wrap;html=1;strokeColor=none;fillColor=none;fontColor=#000000;fontSize=13;" parent="1" vertex="1">
          <mxGeometry x="960" y="120" width="80" height="20" as="geometry" />
        </mxCell>
        <mxCell id="2VZB6rV9Qvf97vIHL61_-743" value="Some" style="rhombus;whiteSpace=wrap;html=1;strokeColor=none;fillColor=none;fontColor=#000000;fontSize=13;strokeWidth=1;" parent="1" vertex="1">
          <mxGeometry x="1" y="248" width="80" height="20" as="geometry" />
        </mxCell>
        <mxCell id="2VZB6rV9Qvf97vIHL61_-744" value="analysts" style="rhombus;whiteSpace=wrap;html=1;strokeColor=none;fillColor=none;fontColor=#000000;fontSize=13;strokeWidth=1;" parent="1" vertex="1">
          <mxGeometry x="80" y="248" width="80" height="20" as="geometry" />
        </mxCell>
        <mxCell id="2VZB6rV9Qvf97vIHL61_-818" style="rounded=0;orthogonalLoop=1;jettySize=auto;html=1;exitX=0;exitY=0.5;exitDx=0;exitDy=0;entryX=1;entryY=0.5;entryDx=0;entryDy=0;startArrow=async;startFill=1;endArrow=async;endFill=1;fillColor=#fff2cc;gradientColor=#ffd966;strokeColor=#B7D94A;strokeWidth=2;endSize=3;startSize=3;" parent="1" edge="1">
          <mxGeometry relative="1" as="geometry">
            <mxPoint x="160.00000000000023" y="298" as="sourcePoint" />
            <mxPoint x="1040" y="298" as="targetPoint" />
          </mxGeometry>
        </mxCell>
        <mxCell id="2VZB6rV9Qvf97vIHL61_-746" value="saw" style="rhombus;whiteSpace=wrap;html=1;strokeColor=none;fillColor=none;fontColor=#000000;fontSize=13;" parent="1" vertex="1">
          <mxGeometry x="160" y="248" width="80" height="20" as="geometry" />
        </mxCell>
        <mxCell id="2VZB6rV9Qvf97vIHL61_-810" style="rounded=0;orthogonalLoop=1;jettySize=auto;html=1;exitX=0;exitY=0.5;exitDx=0;exitDy=0;entryX=1;entryY=0.5;entryDx=0;entryDy=0;startArrow=async;startFill=1;endArrow=async;endFill=1;fillColor=#fff2cc;gradientColor=#ffd966;strokeColor=#B7D94A;strokeWidth=2;endSize=3;startSize=3;" parent="1" edge="1">
          <mxGeometry relative="1" as="geometry">
            <mxPoint x="240" y="268" as="sourcePoint" />
            <mxPoint x="400" y="268" as="targetPoint" />
          </mxGeometry>
        </mxCell>
        <mxCell id="2VZB6rV9Qvf97vIHL61_-747" value="the" style="rhombus;whiteSpace=wrap;html=1;strokeColor=none;fillColor=none;fontColor=#000000;fontSize=13;" parent="1" vertex="1">
          <mxGeometry x="240" y="248" width="80" height="20" as="geometry" />
        </mxCell>
        <mxCell id="2VZB6rV9Qvf97vIHL61_-748" value="payment" style="rhombus;whiteSpace=wrap;html=1;strokeColor=none;fillColor=none;fontColor=#000000;fontSize=13;" parent="1" vertex="1">
          <mxGeometry x="320" y="248" width="80" height="20" as="geometry" />
        </mxCell>
        <mxCell id="2VZB6rV9Qvf97vIHL61_-817" style="rounded=0;orthogonalLoop=1;jettySize=auto;html=1;exitX=0;exitY=0.5;exitDx=0;exitDy=0;entryX=1;entryY=0.5;entryDx=0;entryDy=0;startArrow=async;startFill=1;endArrow=async;endFill=1;fillColor=#fff2cc;gradientColor=#ffd966;strokeColor=#B7D94A;strokeWidth=2;endSize=3;startSize=3;" parent="1" edge="1">
          <mxGeometry relative="1" as="geometry">
            <mxPoint x="400.0000000000002" y="293" as="sourcePoint" />
            <mxPoint x="1040" y="293" as="targetPoint" />
          </mxGeometry>
        </mxCell>
        <mxCell id="2VZB6rV9Qvf97vIHL61_-750" value="as" style="rhombus;whiteSpace=wrap;html=1;strokeColor=none;fillColor=none;fontColor=#000000;fontSize=13;" parent="1" vertex="1">
          <mxGeometry x="400" y="248" width="80" height="20" as="geometry" />
        </mxCell>
        <mxCell id="2VZB6rV9Qvf97vIHL61_-816" style="rounded=0;orthogonalLoop=1;jettySize=auto;html=1;exitX=0;exitY=0.5;exitDx=0;exitDy=0;entryX=1;entryY=0.5;entryDx=0;entryDy=0;startArrow=async;startFill=1;endArrow=async;endFill=1;fillColor=#fff2cc;gradientColor=#ffd966;strokeColor=#B7D94A;strokeWidth=2;endSize=3;startSize=3;" parent="1" edge="1">
          <mxGeometry relative="1" as="geometry">
            <mxPoint x="480" y="288" as="sourcePoint" />
            <mxPoint x="1040" y="288" as="targetPoint" />
          </mxGeometry>
        </mxCell>
        <mxCell id="2VZB6rV9Qvf97vIHL61_-751" value="an" style="rhombus;whiteSpace=wrap;html=1;strokeColor=none;fillColor=none;fontColor=#000000;fontSize=13;" parent="1" vertex="1">
          <mxGeometry x="480" y="248" width="80" height="20" as="geometry" />
        </mxCell>
        <mxCell id="2VZB6rV9Qvf97vIHL61_-752" value="effort" style="rhombus;whiteSpace=wrap;html=1;strokeColor=none;fillColor=none;fontColor=#000000;fontSize=13;" parent="1" vertex="1">
          <mxGeometry x="560" y="248" width="80" height="20" as="geometry" />
        </mxCell>
        <mxCell id="2VZB6rV9Qvf97vIHL61_-815" style="rounded=0;orthogonalLoop=1;jettySize=auto;html=1;exitX=0;exitY=0.5;exitDx=0;exitDy=0;entryX=1;entryY=0.5;entryDx=0;entryDy=0;startArrow=async;startFill=1;endArrow=async;endFill=1;strokeWidth=2;fillColor=#fff2cc;gradientColor=#ffd966;strokeColor=#B7D94A;endSize=3;startSize=3;" parent="1" edge="1">
          <mxGeometry relative="1" as="geometry">
            <mxPoint x="639.9999999999998" y="282.4999999999999" as="sourcePoint" />
            <mxPoint x="1039.9999999999998" y="283" as="targetPoint" />
          </mxGeometry>
        </mxCell>
        <mxCell id="2VZB6rV9Qvf97vIHL61_-753" value="also" style="rhombus;whiteSpace=wrap;html=1;strokeColor=none;fillColor=none;fontColor=#000000;fontSize=13;" parent="1" vertex="1">
          <mxGeometry x="640" y="247" width="80" height="21" as="geometry" />
        </mxCell>
        <mxCell id="2VZB6rV9Qvf97vIHL61_-814" style="rounded=0;orthogonalLoop=1;jettySize=auto;html=1;exitX=0;exitY=0.5;exitDx=0;exitDy=0;entryX=1;entryY=0.5;entryDx=0;entryDy=0;startArrow=async;startFill=1;endArrow=async;endFill=1;fillColor=#fff2cc;gradientColor=#ffd966;strokeColor=#B7D94A;strokeWidth=2;endSize=3;startSize=3;" parent="1" edge="1">
          <mxGeometry relative="1" as="geometry">
            <mxPoint x="719.9999999999998" y="278" as="sourcePoint" />
            <mxPoint x="1039.9999999999998" y="278" as="targetPoint" />
          </mxGeometry>
        </mxCell>
        <mxCell id="2VZB6rV9Qvf97vIHL61_-756" value="to" style="rhombus;whiteSpace=wrap;html=1;strokeColor=none;fillColor=none;fontColor=#000000;fontSize=13;" parent="1" vertex="1">
          <mxGeometry x="720" y="248" width="80" height="20" as="geometry" />
        </mxCell>
        <mxCell id="2VZB6rV9Qvf97vIHL61_-813" style="rounded=0;orthogonalLoop=1;jettySize=auto;html=1;exitX=0;exitY=0.5;exitDx=0;exitDy=0;entryX=1;entryY=0.5;entryDx=0;entryDy=0;startArrow=async;startFill=1;endArrow=async;endFill=1;strokeWidth=2;fillColor=#fff2cc;gradientColor=#ffd966;strokeColor=#B7D94A;endSize=3;startSize=3;" parent="1" edge="1">
          <mxGeometry relative="1" as="geometry">
            <mxPoint x="799.9999999999998" y="273" as="sourcePoint" />
            <mxPoint x="1039.9999999999998" y="273" as="targetPoint" />
          </mxGeometry>
        </mxCell>
        <mxCell id="2VZB6rV9Qvf97vIHL61_-757" value="dispel" style="rhombus;whiteSpace=wrap;html=1;strokeColor=none;fillColor=none;fontColor=#000000;fontSize=13;" parent="1" vertex="1">
          <mxGeometry x="800" y="248" width="80" height="20" as="geometry" />
        </mxCell>
        <mxCell id="2VZB6rV9Qvf97vIHL61_-758" value="takeover" style="rhombus;whiteSpace=wrap;html=1;strokeColor=none;fillColor=none;fontColor=#000000;fontSize=13;" parent="1" vertex="1">
          <mxGeometry x="880" y="248" width="80" height="20" as="geometry" />
        </mxCell>
        <mxCell id="2VZB6rV9Qvf97vIHL61_-759" value="speculation" style="rhombus;whiteSpace=wrap;html=1;strokeColor=none;fillColor=none;fontColor=#000000;fontSize=13;" parent="1" vertex="1">
          <mxGeometry x="960" y="248" width="80" height="20" as="geometry" />
        </mxCell>
        <mxCell id="2VZB6rV9Qvf97vIHL61_-811" style="rounded=0;orthogonalLoop=1;jettySize=auto;html=1;exitX=0;exitY=0.5;exitDx=0;exitDy=0;entryX=1;entryY=0.5;entryDx=0;entryDy=0;startArrow=async;startFill=1;endArrow=async;endFill=1;fillColor=#fff2cc;gradientColor=#ffd966;strokeColor=#B7D94A;strokeWidth=2;endSize=3;startSize=3;" parent="1" edge="1">
          <mxGeometry relative="1" as="geometry">
            <mxPoint x="1.5" y="268" as="sourcePoint" />
            <mxPoint x="161.5" y="268" as="targetPoint" />
          </mxGeometry>
        </mxCell>
        <mxCell id="2VZB6rV9Qvf97vIHL61_-812" style="rounded=0;orthogonalLoop=1;jettySize=auto;html=1;exitX=0;exitY=0.5;exitDx=0;exitDy=0;entryX=1;entryY=0.5;entryDx=0;entryDy=0;startArrow=async;startFill=1;endArrow=async;endFill=1;fillColor=#fff2cc;gradientColor=#ffd966;strokeColor=#B7D94A;strokeWidth=2;endSize=3;startSize=3;" parent="1" edge="1">
          <mxGeometry relative="1" as="geometry">
            <mxPoint x="880" y="268" as="sourcePoint" />
            <mxPoint x="1040" y="268" as="targetPoint" />
          </mxGeometry>
        </mxCell>
        <mxCell id="2VZB6rV9Qvf97vIHL61_-819" value="Teachers:&amp;nbsp; &amp;nbsp; &amp;nbsp;Compound PCFG&amp;nbsp; &amp;nbsp; &amp;nbsp; DIORA&amp;nbsp; &amp;nbsp; &amp;nbsp; ConTest&lt;br style=&quot;font-size: 18px;&quot;&gt;&lt;b style=&quot;font-size: 18px;&quot;&gt;/\&lt;/b&gt;&lt;span style=&quot;font-size: 18px;&quot;&gt;&lt;span style=&quot;font-size: 18px;&quot;&gt;&amp;nbsp;&amp;nbsp;&lt;/span&gt;&lt;/span&gt;Agreed among all teachers" style="rounded=0;whiteSpace=wrap;html=1;align=left;strokeColor=none;fontSize=18;" parent="1" vertex="1">
          <mxGeometry x="1" y="17" width="902" height="84" as="geometry" />
        </mxCell>
        <mxCell id="2VZB6rV9Qvf97vIHL61_-820" value="&amp;nbsp;&lt;font color=&quot;#b7d94a&quot; style=&quot;font-size: 24px;&quot;&gt;&lt;b style=&quot;&quot;&gt;⥎&lt;/b&gt;&lt;/font&gt;&lt;span style=&quot;font-size: 18px;&quot;&gt;&lt;span style=&quot;font-size: 18px;&quot;&gt;&amp;nbsp;&amp;nbsp;&amp;nbsp;&lt;/span&gt;&lt;/span&gt;Groundtruth constituents&lt;br&gt;&amp;nbsp;&amp;nbsp;/\&lt;span style=&quot;border-color: var(--border-color);&quot;&gt;&amp;nbsp;&amp;nbsp;&amp;nbsp;&amp;nbsp;&lt;/span&gt;Our ensemble" style="rounded=0;whiteSpace=wrap;html=1;align=left;strokeColor=none;fontSize=18;" parent="1" vertex="1">
          <mxGeometry x="1" y="161" width="431" height="63" as="geometry" />
        </mxCell>
        <mxCell id="2VZB6rV9Qvf97vIHL61_-470" style="rounded=0;orthogonalLoop=1;jettySize=auto;html=1;exitX=0.5;exitY=0;exitDx=0;exitDy=0;entryX=0.5;entryY=0;entryDx=0;entryDy=0;endArrow=none;endFill=0;strokeColor=#afb7f8;strokeWidth=2;" parent="1" edge="1">
          <mxGeometry relative="1" as="geometry">
            <mxPoint x="180.00000000000006" y="120" as="sourcePoint" />
            <mxPoint x="378.99999999999994" y="90" as="targetPoint" />
          </mxGeometry>
        </mxCell>
        <mxCell id="2VZB6rV9Qvf97vIHL61_-455" style="rounded=0;orthogonalLoop=1;jettySize=auto;html=1;exitX=0.5;exitY=0;exitDx=0;exitDy=0;entryX=0.5;entryY=0;entryDx=0;entryDy=0;endArrow=none;endFill=0;strokeColor=#afb7f8;strokeWidth=2;" parent="1" edge="1">
          <mxGeometry relative="1" as="geometry">
            <mxPoint x="424.00000000000006" y="120" as="sourcePoint" />
            <mxPoint x="504.00000000000006" y="108" as="targetPoint" />
          </mxGeometry>
        </mxCell>
        <mxCell id="2VZB6rV9Qvf97vIHL61_-482" style="rounded=0;orthogonalLoop=1;jettySize=auto;html=1;exitX=0.5;exitY=0;exitDx=0;exitDy=0;endArrow=none;endFill=0;strokeColor=#afb7f8;strokeWidth=2;" parent="1" edge="1">
          <mxGeometry relative="1" as="geometry">
            <mxPoint x="755" y="120" as="sourcePoint" />
            <mxPoint x="875" y="101.39999999999999" as="targetPoint" />
          </mxGeometry>
        </mxCell>
        <mxCell id="2VZB6rV9Qvf97vIHL61_-593" style="rounded=0;orthogonalLoop=1;jettySize=auto;html=1;strokeColor=#44e87b;endArrow=none;endFill=0;strokeWidth=2;dashed=1;" parent="1" edge="1">
          <mxGeometry relative="1" as="geometry">
            <mxPoint x="751" y="120" as="sourcePoint" />
            <mxPoint x="719" y="113.39999999999999" as="targetPoint" />
          </mxGeometry>
        </mxCell>
        <mxCell id="2VZB6rV9Qvf97vIHL61_-456" style="rounded=0;orthogonalLoop=1;jettySize=auto;html=1;entryX=0.5;entryY=0;entryDx=0;entryDy=0;endArrow=none;endFill=0;strokeColor=#afb7f8;strokeWidth=2;" parent="1" edge="1">
          <mxGeometry relative="1" as="geometry">
            <mxPoint x="559" y="113.99999999999999" as="sourcePoint" />
            <mxPoint x="506.00000000000006" y="108" as="targetPoint" />
          </mxGeometry>
        </mxCell>
        <mxCell id="2VZB6rV9Qvf97vIHL61_-465" style="rounded=0;orthogonalLoop=1;jettySize=auto;html=1;exitX=0;exitY=0.5;exitDx=0;exitDy=0;entryX=0.5;entryY=0;entryDx=0;entryDy=0;endArrow=none;endFill=0;strokeColor=#afb7f8;strokeWidth=2;" parent="1" edge="1">
          <mxGeometry relative="1" as="geometry">
            <mxPoint x="311.00000000000006" y="114.6" as="sourcePoint" />
            <mxPoint x="431.00000000000006" y="96.6" as="targetPoint" />
          </mxGeometry>
        </mxCell>
        <mxCell id="2VZB6rV9Qvf97vIHL61_-466" style="rounded=0;orthogonalLoop=1;jettySize=auto;html=1;exitX=1;exitY=0.5;exitDx=0;exitDy=0;entryX=0.5;entryY=0;entryDx=0;entryDy=0;endArrow=none;endFill=0;strokeColor=#afb7f8;strokeWidth=2;" parent="1" edge="1">
          <mxGeometry relative="1" as="geometry">
            <mxPoint x="505.99999999999994" y="108" as="sourcePoint" />
            <mxPoint x="427.00000000000006" y="96" as="targetPoint" />
          </mxGeometry>
        </mxCell>
        <mxCell id="2VZB6rV9Qvf97vIHL61_-471" style="rounded=0;orthogonalLoop=1;jettySize=auto;html=1;exitX=1;exitY=0.5;exitDx=0;exitDy=0;endArrow=none;endFill=0;strokeColor=#afb7f8;strokeWidth=2;" parent="1" edge="1">
          <mxGeometry relative="1" as="geometry">
            <mxPoint x="430.99999999999994" y="96.6" as="sourcePoint" />
            <mxPoint x="385.00000000000006" y="89.39999999999999" as="targetPoint" />
          </mxGeometry>
        </mxCell>
        <mxCell id="2VZB6rV9Qvf97vIHL61_-507" style="rounded=0;orthogonalLoop=1;jettySize=auto;html=1;endArrow=none;endFill=0;strokeColor=#afb7f8;strokeWidth=2;" parent="1" edge="1">
          <mxGeometry relative="1" as="geometry">
            <mxPoint x="379.00000000000006" y="90" as="sourcePoint" />
            <mxPoint x="584" y="58.8" as="targetPoint" />
          </mxGeometry>
        </mxCell>
        <mxCell id="2VZB6rV9Qvf97vIHL61_-563" style="rounded=0;orthogonalLoop=1;jettySize=auto;html=1;exitX=0.5;exitY=0;exitDx=0;exitDy=0;entryX=0.5;entryY=0;entryDx=0;entryDy=0;endArrow=none;endFill=0;strokeColor=#44e87b;strokeWidth=2;dashed=1;" parent="1" edge="1">
          <mxGeometry relative="1" as="geometry">
            <mxPoint x="200.00000000000006" y="120" as="sourcePoint" />
            <mxPoint x="398.99999999999994" y="90" as="targetPoint" />
          </mxGeometry>
        </mxCell>
        <mxCell id="2VZB6rV9Qvf97vIHL61_-565" style="rounded=0;orthogonalLoop=1;jettySize=auto;html=1;exitX=0.5;exitY=0;exitDx=0;exitDy=0;entryX=0.5;entryY=0;entryDx=0;entryDy=0;endArrow=none;endFill=0;strokeColor=#000000;strokeWidth=4;" parent="1" edge="1">
          <mxGeometry relative="1" as="geometry">
            <mxPoint x="680" y="119.39999999999999" as="sourcePoint" />
            <mxPoint x="836" y="96" as="targetPoint" />
          </mxGeometry>
        </mxCell>
        <mxCell id="2VZB6rV9Qvf97vIHL61_-568" style="rounded=0;orthogonalLoop=1;jettySize=auto;html=1;exitX=0;exitY=0.5;exitDx=0;exitDy=0;entryX=0.5;entryY=0;entryDx=0;entryDy=0;endArrow=none;endFill=0;strokeColor=#000000;strokeWidth=4;" parent="1" edge="1">
          <mxGeometry relative="1" as="geometry">
            <mxPoint x="40" y="120" as="sourcePoint" />
            <mxPoint x="80" y="113.99999999999999" as="targetPoint" />
          </mxGeometry>
        </mxCell>
        <mxCell id="2VZB6rV9Qvf97vIHL61_-569" style="rounded=0;orthogonalLoop=1;jettySize=auto;html=1;exitX=1;exitY=0.5;exitDx=0;exitDy=0;entryX=0.5;entryY=0;entryDx=0;entryDy=0;endArrow=none;endFill=0;strokeColor=#000000;strokeWidth=4;" parent="1" edge="1">
          <mxGeometry relative="1" as="geometry">
            <mxPoint x="120.00000000000006" y="120" as="sourcePoint" />
            <mxPoint x="80" y="113.99999999999999" as="targetPoint" />
          </mxGeometry>
        </mxCell>
        <mxCell id="2VZB6rV9Qvf97vIHL61_-578" style="rounded=0;orthogonalLoop=1;jettySize=auto;html=1;exitX=1;exitY=0.5;exitDx=0;exitDy=0;entryX=1;entryY=0.5;entryDx=0;entryDy=0;endArrow=none;endFill=0;strokeColor=#000000;strokeWidth=4;" parent="1" edge="1">
          <mxGeometry relative="1" as="geometry">
            <mxPoint x="999" y="120" as="sourcePoint" />
            <mxPoint x="957.9999999999998" y="113.99999999999999" as="targetPoint" />
          </mxGeometry>
        </mxCell>
        <mxCell id="2VZB6rV9Qvf97vIHL61_-579" style="rounded=0;orthogonalLoop=1;jettySize=auto;html=1;exitX=0;exitY=0.5;exitDx=0;exitDy=0;entryX=0.5;entryY=0;entryDx=0;entryDy=0;endArrow=none;endFill=0;strokeColor=#000000;strokeWidth=4;" parent="1" edge="1">
          <mxGeometry relative="1" as="geometry">
            <mxPoint x="919" y="120" as="sourcePoint" />
            <mxPoint x="959" y="113.99999999999999" as="targetPoint" />
          </mxGeometry>
        </mxCell>
        <mxCell id="2VZB6rV9Qvf97vIHL61_-584" style="rounded=0;orthogonalLoop=1;jettySize=auto;html=1;entryX=0.5;entryY=0;entryDx=0;entryDy=0;endArrow=none;endFill=0;strokeColor=#44e87b;strokeWidth=2;dashed=1;" parent="1" edge="1">
          <mxGeometry relative="1" as="geometry">
            <mxPoint x="399.00000000000006" y="90" as="sourcePoint" />
            <mxPoint x="596" y="60" as="targetPoint" />
          </mxGeometry>
        </mxCell>
        <mxCell id="2VZB6rV9Qvf97vIHL61_-585" style="rounded=0;orthogonalLoop=1;jettySize=auto;html=1;exitX=1;exitY=0.5;exitDx=0;exitDy=0;entryX=0.5;entryY=0;entryDx=0;entryDy=0;endArrow=none;endFill=0;strokeColor=#000000;strokeWidth=4;" parent="1" edge="1">
          <mxGeometry relative="1" as="geometry">
            <mxPoint x="596" y="60" as="sourcePoint" />
            <mxPoint x="516" y="48" as="targetPoint" />
          </mxGeometry>
        </mxCell>
        <mxCell id="2VZB6rV9Qvf97vIHL61_-588" style="rounded=0;orthogonalLoop=1;jettySize=auto;html=1;exitX=1;exitY=0.5;exitDx=0;exitDy=0;entryX=0.5;entryY=0;entryDx=0;entryDy=0;endArrow=none;endFill=0;strokeColor=#44e87b;strokeWidth=2;dashed=1;" parent="1" edge="1">
          <mxGeometry relative="1" as="geometry">
            <mxPoint x="314.7200000000001" y="114.6" as="sourcePoint" />
            <mxPoint x="274.7200000000001" y="108.6" as="targetPoint" />
          </mxGeometry>
        </mxCell>
        <mxCell id="2VZB6rV9Qvf97vIHL61_-603" style="rounded=0;orthogonalLoop=1;jettySize=auto;html=1;entryX=0.5;entryY=0;entryDx=0;entryDy=0;endArrow=none;endFill=0;strokeColor=#44e87b;strokeWidth=2;dashed=1;" parent="1" edge="1">
          <mxGeometry relative="1" as="geometry">
            <mxPoint x="560" y="113.39999999999999" as="sourcePoint" />
            <mxPoint x="758" y="84" as="targetPoint" />
          </mxGeometry>
        </mxCell>
        <mxCell id="2VZB6rV9Qvf97vIHL61_-604" style="rounded=0;orthogonalLoop=1;jettySize=auto;html=1;exitX=0.5;exitY=0;exitDx=0;exitDy=0;endArrow=none;endFill=0;strokeColor=#44e87b;strokeWidth=2;dashed=1;" parent="1" edge="1">
          <mxGeometry relative="1" as="geometry">
            <mxPoint x="443.00000000000006" y="120" as="sourcePoint" />
            <mxPoint x="720" y="78" as="targetPoint" />
          </mxGeometry>
        </mxCell>
        <mxCell id="2VZB6rV9Qvf97vIHL61_-609" style="rounded=0;orthogonalLoop=1;jettySize=auto;html=1;endArrow=none;endFill=0;strokeColor=#00dcff;strokeWidth=2;dashed=1;dashPattern=1 1;" parent="1" edge="1">
          <mxGeometry relative="1" as="geometry">
            <mxPoint x="221.00000000000006" y="120" as="sourcePoint" />
            <mxPoint x="295.00000000000006" y="109.19999999999999" as="targetPoint" />
          </mxGeometry>
        </mxCell>
        <mxCell id="2VZB6rV9Qvf97vIHL61_-612" style="rounded=0;orthogonalLoop=1;jettySize=auto;html=1;exitX=1;exitY=0.5;exitDx=0;exitDy=0;endArrow=none;endFill=0;strokeColor=#00dcff;strokeWidth=2;dashed=1;dashPattern=1 1;" parent="1" edge="1">
          <mxGeometry relative="1" as="geometry">
            <mxPoint x="325.00000000000006" y="113.99999999999999" as="sourcePoint" />
            <mxPoint x="207.00000000000006" y="95.4" as="targetPoint" />
          </mxGeometry>
        </mxCell>
        <mxCell id="2VZB6rV9Qvf97vIHL61_-623" style="rounded=0;orthogonalLoop=1;jettySize=auto;html=1;endArrow=none;endFill=0;strokeColor=#00dcff;strokeWidth=2;dashed=1;dashPattern=1 1;" parent="1" edge="1">
          <mxGeometry relative="1" as="geometry">
            <mxPoint x="568" y="115.19999999999999" as="sourcePoint" />
            <mxPoint x="770" y="85.19999999999999" as="targetPoint" />
          </mxGeometry>
        </mxCell>
        <mxCell id="2VZB6rV9Qvf97vIHL61_-624" style="rounded=0;orthogonalLoop=1;jettySize=auto;html=1;exitX=0.5;exitY=0;exitDx=0;exitDy=0;endArrow=none;endFill=0;strokeColor=#00dcff;strokeWidth=2;dashed=1;dashPattern=1 1;" parent="1" edge="1">
          <mxGeometry relative="1" as="geometry">
            <mxPoint x="462.00000000000006" y="120" as="sourcePoint" />
            <mxPoint x="730" y="79.19999999999999" as="targetPoint" />
          </mxGeometry>
        </mxCell>
        <mxCell id="2VZB6rV9Qvf97vIHL61_-625" style="rounded=0;orthogonalLoop=1;jettySize=auto;html=1;exitX=0.5;exitY=0;exitDx=0;exitDy=0;endArrow=none;endFill=0;strokeColor=#00dcff;strokeWidth=2;dashed=1;dashPattern=1 1;" parent="1" edge="1">
          <mxGeometry relative="1" as="geometry">
            <mxPoint x="774" y="120" as="sourcePoint" />
            <mxPoint x="886" y="102.6" as="targetPoint" />
          </mxGeometry>
        </mxCell>
        <mxCell id="2VZB6rV9Qvf97vIHL61_-634" style="rounded=0;orthogonalLoop=1;jettySize=auto;html=1;exitX=1;exitY=0.5;exitDx=0;exitDy=0;entryX=0.5;entryY=0;entryDx=0;entryDy=0;endArrow=none;endFill=0;strokeColor=#000000;strokeWidth=4;" parent="1" edge="1">
          <mxGeometry relative="1" as="geometry">
            <mxPoint x="600" y="120" as="sourcePoint" />
            <mxPoint x="560" y="113.99999999999999" as="targetPoint" />
          </mxGeometry>
        </mxCell>
        <mxCell id="2VZB6rV9Qvf97vIHL61_-635" style="rounded=0;orthogonalLoop=1;jettySize=auto;html=1;exitX=0;exitY=0.5;exitDx=0;exitDy=0;endArrow=none;endFill=0;strokeColor=#000000;strokeWidth=4;" parent="1" edge="1">
          <mxGeometry relative="1" as="geometry">
            <mxPoint x="520" y="120" as="sourcePoint" />
            <mxPoint x="562" y="113.99999999999999" as="targetPoint" />
          </mxGeometry>
        </mxCell>
        <mxCell id="2VZB6rV9Qvf97vIHL61_-636" style="rounded=0;orthogonalLoop=1;jettySize=auto;html=1;exitX=0.5;exitY=0;exitDx=0;exitDy=0;endArrow=none;endFill=0;strokeColor=#000000;strokeWidth=4;" parent="1" edge="1">
          <mxGeometry relative="1" as="geometry">
            <mxPoint x="840" y="120" as="sourcePoint" />
            <mxPoint x="918" y="108" as="targetPoint" />
          </mxGeometry>
        </mxCell>
        <mxCell id="2VZB6rV9Qvf97vIHL61_-637" style="rounded=0;orthogonalLoop=1;jettySize=auto;html=1;exitX=1;exitY=0.5;exitDx=0;exitDy=0;endArrow=none;endFill=0;strokeColor=#000000;strokeWidth=4;" parent="1" edge="1">
          <mxGeometry relative="1" as="geometry">
            <mxPoint x="957.9999999999998" y="113.99999999999999" as="sourcePoint" />
            <mxPoint x="917" y="108" as="targetPoint" />
          </mxGeometry>
        </mxCell>
        <mxCell id="2VZB6rV9Qvf97vIHL61_-640" style="rounded=0;orthogonalLoop=1;jettySize=auto;html=1;exitX=1;exitY=0.5;exitDx=0;exitDy=0;endArrow=none;endFill=0;strokeColor=#000000;strokeWidth=4;" parent="1" edge="1">
          <mxGeometry relative="1" as="geometry">
            <mxPoint x="917" y="108" as="sourcePoint" />
            <mxPoint x="876" y="102" as="targetPoint" />
          </mxGeometry>
        </mxCell>
        <mxCell id="2VZB6rV9Qvf97vIHL61_-641" style="rounded=0;orthogonalLoop=1;jettySize=auto;html=1;exitX=1;exitY=0.5;exitDx=0;exitDy=0;entryX=0.5;entryY=0;entryDx=0;entryDy=0;endArrow=none;endFill=0;strokeColor=#000000;strokeWidth=4;" parent="1" edge="1">
          <mxGeometry relative="1" as="geometry">
            <mxPoint x="876" y="102" as="sourcePoint" />
            <mxPoint x="836" y="96" as="targetPoint" />
          </mxGeometry>
        </mxCell>
        <mxCell id="2VZB6rV9Qvf97vIHL61_-643" style="rounded=0;orthogonalLoop=1;jettySize=auto;html=1;exitX=1;exitY=0.5;exitDx=0;exitDy=0;entryX=0.5;entryY=0;entryDx=0;entryDy=0;endArrow=none;endFill=0;strokeColor=#000000;strokeWidth=4;" parent="1" edge="1">
          <mxGeometry relative="1" as="geometry">
            <mxPoint x="836" y="96" as="sourcePoint" />
            <mxPoint x="596" y="60" as="targetPoint" />
          </mxGeometry>
        </mxCell>
        <mxCell id="2VZB6rV9Qvf97vIHL61_-644" style="rounded=0;orthogonalLoop=1;jettySize=auto;html=1;exitX=0;exitY=0.5;exitDx=0;exitDy=0;entryX=0.5;entryY=0;entryDx=0;entryDy=0;endArrow=none;endFill=0;strokeColor=#000000;strokeWidth=4;" parent="1" edge="1">
          <mxGeometry relative="1" as="geometry">
            <mxPoint x="280.00000000000006" y="120" as="sourcePoint" />
            <mxPoint x="320.00000000000006" y="113.99999999999999" as="targetPoint" />
          </mxGeometry>
        </mxCell>
        <mxCell id="2VZB6rV9Qvf97vIHL61_-645" style="rounded=0;orthogonalLoop=1;jettySize=auto;html=1;exitX=1;exitY=0.5;exitDx=0;exitDy=0;endArrow=none;endFill=0;strokeColor=#000000;strokeWidth=4;" parent="1" edge="1">
          <mxGeometry relative="1" as="geometry">
            <mxPoint x="360.00000000000006" y="120" as="sourcePoint" />
            <mxPoint x="319.00000000000006" y="113.99999999999999" as="targetPoint" />
          </mxGeometry>
        </mxCell>
        <mxCell id="2VZB6rV9Qvf97vIHL61_-646" style="rounded=0;orthogonalLoop=1;jettySize=auto;html=1;exitX=0.5;exitY=0;exitDx=0;exitDy=0;endArrow=none;endFill=0;strokeColor=#000000;strokeWidth=4;" parent="1" edge="1">
          <mxGeometry relative="1" as="geometry">
            <mxPoint x="80.00000000000006" y="113.99999999999999" as="sourcePoint" />
            <mxPoint x="517" y="48" as="targetPoint" />
          </mxGeometry>
        </mxCell>
        <mxCell id="dquh4pJukZl_PqppRF8x-4" style="rounded=0;orthogonalLoop=1;jettySize=auto;html=1;endArrow=none;endFill=0;strokeColor=#44E87B;strokeWidth=2;dashed=1;" parent="1" edge="1">
          <mxGeometry relative="1" as="geometry">
            <mxPoint x="266" y="54" as="sourcePoint" />
            <mxPoint x="270" y="41" as="targetPoint" />
          </mxGeometry>
        </mxCell>
        <mxCell id="dquh4pJukZl_PqppRF8x-5" style="rounded=0;orthogonalLoop=1;jettySize=auto;html=1;endArrow=none;endFill=0;strokeColor=#44E87B;strokeWidth=2;dashed=1;" parent="1" edge="1">
          <mxGeometry relative="1" as="geometry">
            <mxPoint x="275" y="54" as="sourcePoint" />
            <mxPoint x="270" y="41" as="targetPoint" />
          </mxGeometry>
        </mxCell>
        <mxCell id="dquh4pJukZl_PqppRF8x-6" style="rounded=0;orthogonalLoop=1;jettySize=auto;html=1;endArrow=none;endFill=0;strokeColor=#00dcff;strokeWidth=2;dashed=1;dashPattern=1 1;" parent="1" edge="1">
          <mxGeometry relative="1" as="geometry">
            <mxPoint x="354" y="55" as="sourcePoint" />
            <mxPoint x="358" y="42" as="targetPoint" />
          </mxGeometry>
        </mxCell>
        <mxCell id="dquh4pJukZl_PqppRF8x-7" style="rounded=0;orthogonalLoop=1;jettySize=auto;html=1;endArrow=none;endFill=0;strokeColor=#00dcff;strokeWidth=2;dashed=1;dashPattern=1 1;" parent="1" edge="1">
          <mxGeometry relative="1" as="geometry">
            <mxPoint x="363" y="55" as="sourcePoint" />
            <mxPoint x="358" y="42" as="targetPoint" />
          </mxGeometry>
        </mxCell>
        <mxCell id="dquh4pJukZl_PqppRF8x-8" style="rounded=0;orthogonalLoop=1;jettySize=auto;html=1;endArrow=none;endFill=0;strokeColor=#afb7f8;strokeWidth=2;" parent="1" edge="1">
          <mxGeometry relative="1" as="geometry">
            <mxPoint x="93" y="54" as="sourcePoint" />
            <mxPoint x="97" y="41" as="targetPoint" />
          </mxGeometry>
        </mxCell>
        <mxCell id="dquh4pJukZl_PqppRF8x-9" style="rounded=0;orthogonalLoop=1;jettySize=auto;html=1;endArrow=none;endFill=0;strokeColor=#afb7f8;strokeWidth=2;" parent="1" edge="1">
          <mxGeometry relative="1" as="geometry">
            <mxPoint x="102" y="54" as="sourcePoint" />
            <mxPoint x="97" y="41" as="targetPoint" />
          </mxGeometry>
        </mxCell>
        <mxCell id="dquh4pJukZl_PqppRF8x-11" value="" style="group" parent="1" vertex="1" connectable="0">
          <mxGeometry x="40" y="179" width="959" height="69" as="geometry" />
        </mxCell>
        <mxCell id="2VZB6rV9Qvf97vIHL61_-772" style="rounded=0;orthogonalLoop=1;jettySize=auto;html=1;exitX=1;exitY=0.5;exitDx=0;exitDy=0;entryX=0.5;entryY=0;entryDx=0;entryDy=0;endArrow=none;endFill=0;strokeColor=#000000;strokeWidth=2;" parent="dquh4pJukZl_PqppRF8x-11" edge="1">
          <mxGeometry relative="1" as="geometry">
            <mxPoint x="556" y="11.5" as="sourcePoint" />
            <mxPoint x="476.00000000000006" as="targetPoint" />
          </mxGeometry>
        </mxCell>
        <mxCell id="dquh4pJukZl_PqppRF8x-10" value="" style="group" parent="dquh4pJukZl_PqppRF8x-11" vertex="1" connectable="0">
          <mxGeometry width="959" height="69" as="geometry" />
        </mxCell>
        <mxCell id="2VZB6rV9Qvf97vIHL61_-754" style="rounded=0;orthogonalLoop=1;jettySize=auto;html=1;exitX=0.5;exitY=0;exitDx=0;exitDy=0;endArrow=none;endFill=0;strokeColor=#000000;strokeWidth=2;" parent="dquh4pJukZl_PqppRF8x-10" edge="1">
          <mxGeometry relative="1" as="geometry">
            <mxPoint x="722" y="69" as="sourcePoint" />
            <mxPoint x="836" y="51.74999999999999" as="targetPoint" />
          </mxGeometry>
        </mxCell>
        <mxCell id="2VZB6rV9Qvf97vIHL61_-765" style="rounded=0;orthogonalLoop=1;jettySize=auto;html=1;exitX=0.5;exitY=0;exitDx=0;exitDy=0;entryX=0.5;entryY=0;entryDx=0;entryDy=0;endArrow=none;endFill=0;strokeColor=#000000;strokeWidth=2;" parent="dquh4pJukZl_PqppRF8x-10" edge="1">
          <mxGeometry relative="1" as="geometry">
            <mxPoint x="160.00000000000006" y="69" as="sourcePoint" />
            <mxPoint x="358.99999999999994" y="40.25" as="targetPoint" />
          </mxGeometry>
        </mxCell>
        <mxCell id="2VZB6rV9Qvf97vIHL61_-766" style="rounded=0;orthogonalLoop=1;jettySize=auto;html=1;exitX=0.5;exitY=0;exitDx=0;exitDy=0;entryX=0.5;entryY=0;entryDx=0;entryDy=0;endArrow=none;endFill=0;strokeColor=#000000;strokeWidth=2;" parent="dquh4pJukZl_PqppRF8x-10" edge="1">
          <mxGeometry relative="1" as="geometry">
            <mxPoint x="640" y="68.425" as="sourcePoint" />
            <mxPoint x="796" y="46" as="targetPoint" />
          </mxGeometry>
        </mxCell>
        <mxCell id="2VZB6rV9Qvf97vIHL61_-767" style="rounded=0;orthogonalLoop=1;jettySize=auto;html=1;exitX=0;exitY=0.5;exitDx=0;exitDy=0;entryX=0.5;entryY=0;entryDx=0;entryDy=0;endArrow=none;endFill=0;strokeColor=#000000;strokeWidth=2;" parent="dquh4pJukZl_PqppRF8x-10" edge="1">
          <mxGeometry relative="1" as="geometry">
            <mxPoint y="69" as="sourcePoint" />
            <mxPoint x="40" y="63.24999999999999" as="targetPoint" />
          </mxGeometry>
        </mxCell>
        <mxCell id="2VZB6rV9Qvf97vIHL61_-768" style="rounded=0;orthogonalLoop=1;jettySize=auto;html=1;exitX=1;exitY=0.5;exitDx=0;exitDy=0;entryX=0.5;entryY=0;entryDx=0;entryDy=0;endArrow=none;endFill=0;strokeColor=#000000;strokeWidth=2;" parent="dquh4pJukZl_PqppRF8x-10" edge="1">
          <mxGeometry relative="1" as="geometry">
            <mxPoint x="80.00000000000006" y="69" as="sourcePoint" />
            <mxPoint x="40" y="63.24999999999999" as="targetPoint" />
          </mxGeometry>
        </mxCell>
        <mxCell id="2VZB6rV9Qvf97vIHL61_-769" style="rounded=0;orthogonalLoop=1;jettySize=auto;html=1;exitX=1;exitY=0.5;exitDx=0;exitDy=0;entryX=1;entryY=0.5;entryDx=0;entryDy=0;endArrow=none;endFill=0;strokeColor=#000000;strokeWidth=2;" parent="dquh4pJukZl_PqppRF8x-10" edge="1">
          <mxGeometry relative="1" as="geometry">
            <mxPoint x="959" y="69" as="sourcePoint" />
            <mxPoint x="917.9999999999998" y="63.24999999999999" as="targetPoint" />
          </mxGeometry>
        </mxCell>
        <mxCell id="2VZB6rV9Qvf97vIHL61_-770" style="rounded=0;orthogonalLoop=1;jettySize=auto;html=1;exitX=0;exitY=0.5;exitDx=0;exitDy=0;entryX=0.5;entryY=0;entryDx=0;entryDy=0;endArrow=none;endFill=0;strokeColor=#000000;strokeWidth=2;" parent="dquh4pJukZl_PqppRF8x-10" edge="1">
          <mxGeometry relative="1" as="geometry">
            <mxPoint x="879" y="69" as="sourcePoint" />
            <mxPoint x="919" y="63.24999999999999" as="targetPoint" />
          </mxGeometry>
        </mxCell>
        <mxCell id="2VZB6rV9Qvf97vIHL61_-771" style="rounded=0;orthogonalLoop=1;jettySize=auto;html=1;entryX=0.5;entryY=0;entryDx=0;entryDy=0;endArrow=none;endFill=0;strokeColor=#000000;strokeWidth=2;" parent="dquh4pJukZl_PqppRF8x-10" edge="1">
          <mxGeometry relative="1" as="geometry">
            <mxPoint x="359.00000000000006" y="40.25" as="sourcePoint" />
            <mxPoint x="556" y="11.5" as="targetPoint" />
          </mxGeometry>
        </mxCell>
        <mxCell id="2VZB6rV9Qvf97vIHL61_-773" style="rounded=0;orthogonalLoop=1;jettySize=auto;html=1;exitX=1;exitY=0.5;exitDx=0;exitDy=0;entryX=0.5;entryY=0;entryDx=0;entryDy=0;endArrow=none;endFill=0;strokeColor=#000000;strokeWidth=2;" parent="dquh4pJukZl_PqppRF8x-10" edge="1">
          <mxGeometry relative="1" as="geometry">
            <mxPoint x="278.7200000000001" y="63.24999999999999" as="sourcePoint" />
            <mxPoint x="238.72000000000008" y="57.49999999999999" as="targetPoint" />
          </mxGeometry>
        </mxCell>
        <mxCell id="2VZB6rV9Qvf97vIHL61_-774" style="rounded=0;orthogonalLoop=1;jettySize=auto;html=1;entryX=0.5;entryY=0;entryDx=0;entryDy=0;endArrow=none;endFill=0;strokeColor=#000000;strokeWidth=2;" parent="dquh4pJukZl_PqppRF8x-10" edge="1">
          <mxGeometry relative="1" as="geometry">
            <mxPoint x="522" y="63.24999999999999" as="sourcePoint" />
            <mxPoint x="720" y="35.074999999999996" as="targetPoint" />
          </mxGeometry>
        </mxCell>
        <mxCell id="2VZB6rV9Qvf97vIHL61_-775" style="rounded=0;orthogonalLoop=1;jettySize=auto;html=1;exitX=0.5;exitY=0;exitDx=0;exitDy=0;endArrow=none;endFill=0;strokeColor=#000000;strokeWidth=2;" parent="dquh4pJukZl_PqppRF8x-10" edge="1">
          <mxGeometry relative="1" as="geometry">
            <mxPoint x="403.00000000000006" y="69" as="sourcePoint" />
            <mxPoint x="680" y="29.325" as="targetPoint" />
          </mxGeometry>
        </mxCell>
        <mxCell id="2VZB6rV9Qvf97vIHL61_-781" style="rounded=0;orthogonalLoop=1;jettySize=auto;html=1;exitX=1;exitY=0.5;exitDx=0;exitDy=0;endArrow=none;endFill=0;strokeColor=#000000;strokeWidth=2;" parent="dquh4pJukZl_PqppRF8x-10" edge="1">
          <mxGeometry relative="1" as="geometry">
            <mxPoint x="560" y="69" as="sourcePoint" />
            <mxPoint x="522" y="63.24999999999999" as="targetPoint" />
          </mxGeometry>
        </mxCell>
        <mxCell id="2VZB6rV9Qvf97vIHL61_-782" style="rounded=0;orthogonalLoop=1;jettySize=auto;html=1;exitX=0;exitY=0.5;exitDx=0;exitDy=0;endArrow=none;endFill=0;strokeColor=#000000;strokeWidth=2;" parent="dquh4pJukZl_PqppRF8x-10" edge="1">
          <mxGeometry relative="1" as="geometry">
            <mxPoint x="480.00000000000006" y="69" as="sourcePoint" />
            <mxPoint x="522" y="63.24999999999999" as="targetPoint" />
          </mxGeometry>
        </mxCell>
        <mxCell id="2VZB6rV9Qvf97vIHL61_-783" style="rounded=0;orthogonalLoop=1;jettySize=auto;html=1;exitX=0.5;exitY=0;exitDx=0;exitDy=0;endArrow=none;endFill=0;strokeColor=#000000;strokeWidth=2;" parent="dquh4pJukZl_PqppRF8x-10" edge="1">
          <mxGeometry relative="1" as="geometry">
            <mxPoint x="800" y="69" as="sourcePoint" />
            <mxPoint x="878" y="57.49999999999999" as="targetPoint" />
          </mxGeometry>
        </mxCell>
        <mxCell id="2VZB6rV9Qvf97vIHL61_-784" style="rounded=0;orthogonalLoop=1;jettySize=auto;html=1;exitX=1;exitY=0.5;exitDx=0;exitDy=0;endArrow=none;endFill=0;strokeColor=#000000;strokeWidth=2;" parent="dquh4pJukZl_PqppRF8x-10" edge="1">
          <mxGeometry relative="1" as="geometry">
            <mxPoint x="917.9999999999998" y="63.24999999999999" as="sourcePoint" />
            <mxPoint x="877" y="57.49999999999999" as="targetPoint" />
          </mxGeometry>
        </mxCell>
        <mxCell id="2VZB6rV9Qvf97vIHL61_-785" style="rounded=0;orthogonalLoop=1;jettySize=auto;html=1;exitX=1;exitY=0.5;exitDx=0;exitDy=0;endArrow=none;endFill=0;strokeColor=#000000;strokeWidth=2;" parent="dquh4pJukZl_PqppRF8x-10" edge="1">
          <mxGeometry relative="1" as="geometry">
            <mxPoint x="877" y="57.49999999999999" as="sourcePoint" />
            <mxPoint x="836" y="51.74999999999999" as="targetPoint" />
          </mxGeometry>
        </mxCell>
        <mxCell id="2VZB6rV9Qvf97vIHL61_-786" style="rounded=0;orthogonalLoop=1;jettySize=auto;html=1;exitX=1;exitY=0.5;exitDx=0;exitDy=0;entryX=0.5;entryY=0;entryDx=0;entryDy=0;endArrow=none;endFill=0;strokeColor=#000000;strokeWidth=2;" parent="dquh4pJukZl_PqppRF8x-10" edge="1">
          <mxGeometry relative="1" as="geometry">
            <mxPoint x="836" y="51.74999999999999" as="sourcePoint" />
            <mxPoint x="796" y="46" as="targetPoint" />
          </mxGeometry>
        </mxCell>
        <mxCell id="2VZB6rV9Qvf97vIHL61_-787" style="rounded=0;orthogonalLoop=1;jettySize=auto;html=1;exitX=1;exitY=0.5;exitDx=0;exitDy=0;entryX=0.5;entryY=0;entryDx=0;entryDy=0;endArrow=none;endFill=0;strokeColor=#000000;strokeWidth=2;" parent="dquh4pJukZl_PqppRF8x-10" edge="1">
          <mxGeometry relative="1" as="geometry">
            <mxPoint x="796" y="46" as="sourcePoint" />
            <mxPoint x="556" y="11.5" as="targetPoint" />
          </mxGeometry>
        </mxCell>
        <mxCell id="2VZB6rV9Qvf97vIHL61_-788" style="rounded=0;orthogonalLoop=1;jettySize=auto;html=1;exitX=0;exitY=0.5;exitDx=0;exitDy=0;entryX=0.5;entryY=0;entryDx=0;entryDy=0;endArrow=none;endFill=0;strokeColor=#000000;strokeWidth=2;" parent="dquh4pJukZl_PqppRF8x-10" edge="1">
          <mxGeometry relative="1" as="geometry">
            <mxPoint x="240.00000000000006" y="69" as="sourcePoint" />
            <mxPoint x="280.00000000000006" y="63.24999999999999" as="targetPoint" />
          </mxGeometry>
        </mxCell>
        <mxCell id="2VZB6rV9Qvf97vIHL61_-789" style="rounded=0;orthogonalLoop=1;jettySize=auto;html=1;exitX=1;exitY=0.5;exitDx=0;exitDy=0;endArrow=none;endFill=0;strokeColor=#000000;strokeWidth=2;" parent="dquh4pJukZl_PqppRF8x-10" edge="1">
          <mxGeometry relative="1" as="geometry">
            <mxPoint x="320.00000000000006" y="69" as="sourcePoint" />
            <mxPoint x="279.00000000000006" y="63.24999999999999" as="targetPoint" />
          </mxGeometry>
        </mxCell>
        <mxCell id="2VZB6rV9Qvf97vIHL61_-790" style="rounded=0;orthogonalLoop=1;jettySize=auto;html=1;exitX=0.5;exitY=0;exitDx=0;exitDy=0;endArrow=none;endFill=0;strokeColor=#000000;strokeWidth=2;" parent="dquh4pJukZl_PqppRF8x-10" edge="1">
          <mxGeometry relative="1" as="geometry">
            <mxPoint x="40.00000000000006" y="63.24999999999999" as="sourcePoint" />
            <mxPoint x="477.00000000000006" as="targetPoint" />
          </mxGeometry>
        </mxCell>
      </root>
    </mxGraphModel>
  </diagram>
</mxfile>
